# xmcd CD database file
#
# Track frame offsets:
#	187
#	15687
#	33875
#	48407
#	63850
#	75707
#	88830
#	106552
#	124750
#	150737
#
# Disc length: 2225 seconds
#
# Revision: 2
# Processed by: cddbd v1.4PL0 Copyright (c) Steve Scherf et al.
# Submitted via: CDex 1.40Release
#
DISCID=6e08af0a
DTITLE=The Nighthawks - Open All Nite
DYEAR=1976
DGENRE=Blues
TTITLE0=Nine Below Zero
TTITLE1=Help Me
TTITLE2=Shake Your Moneymaker
TTITLE3=Big Boss Man
TTITLE4=Little By Little
TTITLE5=Madison Blues
TTITLE6=Next Time You See Me
TTITLE7=That's Alright
TTITLE8=Long Distance Call
TTITLE9=Red Hot Mama
EXTD=YEAR: 1976 ID3G: 0
EXTT0=
EXTT1=
EXTT2=
EXTT3=
EXTT4=
EXTT5=
EXTT6=
EXTT7=
EXTT8=
EXTT9=
PLAYORDER=
